<svg width="313" height="140" viewBox="0 0 313 140" fill="none" xmlns="http://www.w3.org/2000/svg">
<path d="M110.406 40.4036C95.4382 59.9732 64.5845 62.5336 79 42.5558C94.8044 20.6532 98.0064 55.2733 119.033 38.8177C120.482 37.6841 140.12 20.9555 137.651 29.7558C133.363 45.0347 124.027 59.0272 115.401 72.1204C110.244 79.9473 96.3559 103.973 99.0533 95.0018C100.262 90.9812 108.968 85.2119 111.541 82.9947C124.96 71.4304 138.85 60.4133 152.409 49.0124C165.781 37.7682 179.51 23.3707 195.32 15.4832C200.563 12.8672 195.33 21.6817 194.639 22.6195C183.616 37.5774 172.719 54.1428 159.788 67.4761C157.412 69.925 146.298 79.6649 155.02 72.5735C172.704 58.1956 191.21 44.8546 208.943 30.5487C209.623 29.9995 225.228 15.4703 226.425 18.8814C230.332 30.0192 199.288 59.7952 193.05 67.1363C186.537 74.7998 165.495 96.443 172.616 89.3381C183.124 78.8522 197.576 71.3629 209.624 62.8319C219.437 55.8827 228.921 47.6275 239.934 42.5558C248.008 38.8375 235.749 56.207 234.599 57.9611C225.05 72.5179 212.241 85.6301 200.883 98.8531C189.818 111.733 226.439 76.4347 239.934 66.1168C252.887 56.2133 265.961 46.4382 279.099 36.7788C284.007 33.1705 284.472 35.1339 281.597 39.7239C271.022 56.6064 256.065 70.1467 243.226 85.2602C242.18 86.4923 224.846 109.353 223.246 108.821C221.714 108.312 252.717 81.4994 254.465 80.1628C264.492 72.4967 274.52 64.8325 284.548 57.1682C287.821 54.6664 292.67 49.6911 297.036 48.8991C301.136 48.1552 290.872 63.0671 290.224 63.9646C285.308 70.7777 279.234 77.8596 275.126 85.1469C269.568 95.0055 282.496 77.4196 288.181 77.1044C294.371 76.7613 268.4 118.618 265.704 124" stroke="black" stroke-width="30" stroke-linecap="round"/>
<path d="M93.8125 58.2188C98.0312 56.5781 101 52.5156 101 47.75C101 41.5781 95.9219 36.5 89.75 36.5H78.5C77.0938 36.5 76 37.6719 76 39V69C76 70.4062 77.0938 71.5 78.5 71.5C79.8281 71.5 81 70.4062 81 69V59H88.2656L96.3906 70.4844C96.9375 71.1875 97.7188 71.5781 98.5 71.5781C98.9688 71.5781 99.4375 71.4219 99.9062 71.1094C101 70.25 101.312 68.6875 100.531 67.5938L93.8125 58.2188ZM81 41.5781H89.75C93.1875 41.5781 96 44.3125 96 47.8281C96 51.2656 93.1875 54 89.75 54H81V41.5781ZM126 69C126 70.4062 124.828 71.5 123.5 71.5H103.5C102.094 71.5 101 70.4062 101 69V39C101 37.6719 102.094 36.5781 103.5 36.5781H123.5C124.828 36.5781 126 37.6719 126 39.0781C126 40.4062 124.828 41.5781 123.5 41.5781H106V51.5781H118.5C119.828 51.5781 121 52.6719 121 54C121 55.4062 119.828 56.5781 118.5 56.5781H106V66.5781H123.5C124.828 66.5 126 67.6719 126 69ZM155.766 68.0625L143.266 38.0625C142.875 37.125 141.938 36.5781 141 36.5781C139.984 36.5781 139.047 37.125 138.656 38.0625L126.156 68.0625C125.609 69.3906 126.234 70.7969 127.484 71.3438C128.812 71.8906 130.219 71.2656 130.766 70.0156L133.266 64.0781H148.656L151.156 70.0156C151.547 70.9531 152.484 71.5781 153.5 71.5781C153.812 71.5781 154.125 71.5 154.438 71.3438C155.688 70.7969 156.312 69.3125 155.766 68.0625ZM135.297 59L141 45.5625L146.625 59H135.297ZM168.5 36.5781H158.5C157.094 36.5781 156 37.6719 156 39.0781V69.0781C156 70.4062 157.094 71.5781 158.5 71.5781H168.5C178.109 71.5781 186 63.6875 186 54.0781C186 44.3906 178.109 36.5781 168.5 36.5781ZM168.5 66.5H161V41.5H168.5C175.375 41.5 181 47.125 181 54C181 60.7969 175.375 66.5 168.5 66.5ZM215.531 40.4844L203.5 57.3594V69.0781C203.5 70.4062 202.328 71.5 201 71.5C199.594 71.5 198.5 70.4062 198.5 69V57.3594L186.391 40.4844C185.609 39.3906 185.922 37.8281 187.016 36.9688C188.109 36.1875 189.672 36.5 190.531 37.5938L201 52.2031L211.391 37.5156C212.172 36.4219 213.734 36.1094 214.828 36.9688C216 37.8281 216.312 39.3906 215.531 40.4844ZM261 39.0781C261 40.4062 259.828 41.5781 258.5 41.5781H248.5V69.0781C248.5 70.4062 247.328 71.5 246 71.5C244.594 71.5 243.5 70.4062 243.5 69.0781V41.5781H233.5C232.094 41.5781 231 40.4062 231 39.0781C231 37.6719 232.094 36.5781 233.5 36.5781H258.5C259.828 36.5781 261 37.6719 261 39.0781ZM278.5 36.5781C268.812 36.5781 261 44.3906 261 54.0781C261 63.6875 268.812 71.5781 278.5 71.5781C288.109 71.5781 296 63.6875 296 54.0781C296 44.3906 288.109 36.5781 278.5 36.5781ZM278.5 66.5C271.547 66.5 266 60.9531 266 54C266 47.125 271.547 41.5781 278.5 41.5781C285.375 41.5781 291 47.2031 291 54C291 60.875 285.375 66.5 278.5 66.5ZM198.5 76.5781H188.5C187.094 76.5781 186 77.6719 186 79.0781V109.078C186 110.406 187.094 111.578 188.5 111.578C189.828 111.578 191 110.406 191 109.078V101.578H198.5C205.375 101.578 211 95.9531 211 89.0781C211 82.2812 205.375 76.5781 198.5 76.5781ZM198.5 96.5H191V81.5781H198.5C202.562 81.5781 206 84.9375 206 89.0781C206 93.1406 202.562 96.5 198.5 96.5ZM236 109C236 110.406 234.828 111.5 233.5 111.5H216C214.594 111.5 213.5 110.406 213.5 109V79C213.5 77.6719 214.594 76.5781 216 76.5781C217.328 76.5781 218.5 77.6719 218.5 79.0781V106.578H233.5C234.828 106.5 236 107.672 236 109ZM265.766 108.062L253.266 78.0625C252.875 77.125 251.938 76.5781 251 76.5781C249.984 76.5781 249.047 77.125 248.656 78.0625L236.156 108.062C235.609 109.391 236.234 110.797 237.484 111.344C238.812 111.891 240.219 111.266 240.766 110.016L243.266 104.078H258.656L261.156 110.016C261.547 110.953 262.484 111.578 263.5 111.578C263.812 111.578 264.125 111.5 264.438 111.344C265.688 110.797 266.312 109.312 265.766 108.062ZM245.297 99L251 85.5625L256.625 99H245.297ZM295.531 80.4844L283.5 97.3594V109.078C283.5 110.406 282.328 111.5 281 111.5C279.594 111.5 278.5 110.406 278.5 109V97.3594L266.391 80.4844C265.609 79.3906 265.922 77.8281 267.016 76.9688C268.109 76.1875 269.672 76.5 270.531 77.5938L281 92.2031L291.391 77.5156C292.172 76.4219 293.734 76.1094 294.828 76.9688C296 77.8281 296.312 79.3906 295.531 80.4844Z" fill="#DAE0FA"/>
</svg>
